PathFileType	4	(X/Y/Z)	SUBJ32_4_walk_RCNL2025.trc
DataRate	CameraRate	NumFrames	NumMarkers	Units	OrigDataRate	OrigDataStartFrame	OrigNumFrames
100	100	11	25	mm	100	137	273
Frame#	Time	R_Shoulder			L_Shoulder			C7			J_Notch			R_Elbow			L_Elbow			R_Wrist			L_Wrist			R_Asis			L_Asis			Sacral			Thoracic			Sternum			R_Thigh_Lateral			R_Knee_Lateral			R_Shank_Lateral			R_Ankle_Lateral			R_Heel			R_Toe			L_Thigh_Lateral			L_Knee_Lateral			L_Shank_Lateral			L_Ankle_Lateral			L_Heel			L_Toe		
		X1	Y1	Z1	X2	Y2	Z2	X3	Y3	Z3	X4	Y4	Z4	X5	Y5	Z5	X6	Y6	Z6	X7	Y7	Z7	X8	Y8	Z8	X9	Y9	Z9	X10	Y10	Z10	X11	Y11	Z11	X12	Y12	Z12	X13	Y13	Z13	X14	Y14	Z14	X15	Y15	Z15	X16	Y16	Z16	X17	Y17	Z17	X18	Y18	Z18	X19	Y19	Z19	X20	Y20	Z20	X21	Y21	Z21	X22	Y22	Z22	X23	Y23	Z23	X24	Y24	Z24	X25	Y25	Z25
137	1.36000000	-74.959885	1334.869873	355.227417	-99.400375	1339.571899	-13.522820	-101.682747	1419.636108	183.505920	7.348386	1302.323853	166.508698	-178.833939	1016.428772	464.548279	-164.459579	1036.940918	-136.896408	-130.778519	771.142395	494.215775	-41.566759	811.642456	-173.569496	-11.034004	882.791443	269.048309	-55.852188	869.673462	19.508333	-228.353531	924.200378	177.929352	-225.690628	1188.967896	180.838394	66.598076	1082.970337	151.485062	1.900712	533.454773	346.026001	29.468353	442.734985	299.118958	57.759846	281.306122	358.559540	73.401123	63.471298	239.292603	21.363457	53.192135	186.756836	205.781754	51.066971	201.834335	-194.638336	541.765869	-66.544197	-213.167145	449.234100	-21.971998	-344.431427	266.251587	-35.100277	-465.927216	128.092651	67.024620	-507.165497	155.674286	113.532753	-370.974762	38.924316	104.024239
138	1.37000000	-62.202400	1335.800781	356.617126	-87.496887	1341.819946	-11.987325	-88.950706	1421.081421	185.247070	19.390348	1303.146118	167.713623	-165.299362	1016.874573	465.083435	-155.826385	1039.356201	-134.293350	-116.839409	771.645142	494.144897	-37.840522	811.403961	-171.961868	0.131022	884.683777	270.128510	-44.116810	870.821045	20.565075	-217.040375	925.515991	178.545776	-214.103424	1190.613892	181.812897	78.092079	1084.281738	152.302475	10.138064	534.145935	346.902039	37.306828	443.324707	300.013458	63.025513	281.595093	359.342651	74.119324	63.669163	239.293243	21.711849	53.491295	186.952866	206.396576	50.368126	201.131836	-176.512833	541.558105	-68.027542	-193.463989	448.748535	-24.531981	-329.388885	270.244934	-37.147820	-455.083984	136.221741	65.188194	-494.148010	166.912674	111.376663	-368.332733	39.728130	104.005798
139	1.38000000	-49.492714	1336.876831	357.864685	-75.732277	1344.101929	-10.532540	-76.364883	1422.558228	186.853409	31.293541	1303.954346	168.788422	-151.803925	1017.510254	465.645477	-147.424332	1041.867188	-131.747467	-102.621681	772.399902	494.041321	-34.403519	811.333435	-170.206467	11.169504	886.511719	271.267487	-32.489395	872.056824	21.702654	-205.846985	926.917419	179.289948	-202.631149	1192.292480	182.827774	89.305939	1085.544434	153.061417	17.129555	534.364319	347.535004	44.036686	443.594696	300.729126	66.994377	281.524872	359.986450	74.650368	63.840954	239.225372	21.968464	53.709885	187.010254	206.843842	49.956055	200.538116	-157.963425	541.404480	-69.553757	-173.256439	448.309998	-27.085392	-313.290253	274.230225	-39.245316	-442.940186	144.462311	63.379604	-479.861572	178.081497	109.250153	-364.617004	41.196339	103.788254
140	1.39000000	-36.854832	1338.028442	358.980743	-64.150223	1346.338257	-9.169833	-63.931805	1424.052124	188.324753	43.043880	1304.753052	169.733978	-138.379883	1018.284119	466.266418	-139.268921	1044.400879	-129.303116	-88.135954	773.353485	493.907486	-31.193491	811.392456	-168.321480	22.034477	888.247070	272.377838	-21.001007	873.333740	22.910158	-194.790756	928.410400	180.124573	-191.274597	1193.997192	183.885498	100.276192	1086.732666	153.773010	23.163525	534.274597	348.000366	49.810478	443.627258	301.315887	69.937546	281.202057	360.548950	75.031212	63.963406	239.129745	22.153917	53.879032	186.980469	207.157944	49.726170	200.080994	-139.197845	541.342285	-70.997078	-152.732224	447.983154	-29.490717	-296.182617	278.081360	-41.301640	-429.586487	152.669968	61.612236	-464.513367	188.892502	107.175072	-359.402802	43.472626	103.277153
141	1.40000000	-24.315664	1339.204590	359.979919	-52.781368	1348.470337	-7.912579	-51.647358	1425.558105	189.663239	54.635750	1305.562256	170.556900	-125.049042	1019.152161	466.969696	-131.366257	1046.895264	-126.990929	-73.400053	774.460632	493.743057	-28.153047	811.544830	-166.329575	32.693424	889.877319	273.416565	-9.658470	874.630615	24.159145	-183.891663	929.993469	180.982590	-180.031525	1195.730469	184.978683	111.058052	1087.846802	154.453781	28.596033	534.080750	348.410828	54.844292	443.536499	301.840485	72.178093	280.778015	361.087830	75.292244	64.029587	239.047485	22.282543	54.022865	186.925110	207.363495	49.604950	199.769608	-120.415672	541.423035	-72.250626	-132.037674	447.848419	-31.643526	-278.124603	281.700470	-43.231117	-415.143524	160.708435	59.882324	-448.299530	199.074265	105.195671	-352.276733	46.602276	102.402733
142	1.41000000	-11.906507	1340.378418	360.876251	-41.639534	1350.461426	-6.774230	-39.503506	1427.073975	190.870712	66.071762	1306.406616	171.267715	-111.823227	1020.082825	467.768433	-123.710419	1049.303711	-124.825768	-58.437730	775.689575	493.546738	-25.232580	811.760773	-164.255402	43.127430	891.406616	274.388306	1.563703	875.950562	25.407368	-173.166763	931.655273	181.784607	-168.898224	1197.496948	186.091064	121.711388	1088.906006	155.121674	33.742393	533.967957	348.875916	59.360771	443.431793	302.369446	74.010567	280.394958	361.646942	75.457687	64.045830	239.009872	22.362900	54.159142	186.898865	207.480637	49.545036	199.599411	-101.779236	541.703430	-73.248085	-111.274452	447.988251	-33.489071	-259.193024	285.034088	-44.962006	-399.733185	168.436295	58.178585	-431.394318	208.385681	103.361610	-342.882202	50.516808	101.134384
143	1.42000000	0.342400	1341.543213	361.680481	-30.721674	1352.295044	-5.766119	-27.494518	1428.596313	191.947784	77.360817	1307.307495	171.877609	-98.706161	1021.058350	468.665771	-116.283279	1051.596436	-122.807152	-43.278182	777.025360	493.317642	-22.391470	812.019073	-162.122559	53.319504	892.854187	275.325500	12.706899	877.306335	26.615620	-162.625580	933.377136	182.456757	-157.870270	1199.298340	187.199768	132.288132	1089.939087	155.792252	38.797924	534.055237	349.465790	63.531933	443.387268	302.949371	75.648689	280.139709	362.248962	75.547455	64.025780	239.034973	22.400326	54.299419	186.934998	207.526947	49.517456	199.557861	-83.385208	542.231873	-73.972298	-90.506668	448.471405	-35.018623	-239.487503	288.074799	-46.441162	-383.456024	175.696838	56.494438	-413.942322	216.619720	101.706047	-330.953491	55.048107	99.490074
144	1.43000000	12.408538	1342.705688	362.398102	-20.011406	1353.971191	-4.895214	-15.620036	1430.119385	192.893631	88.514732	1308.276367	172.395828	-85.698662	1022.073608	469.654297	-109.058044	1053.759888	-120.921532	-27.954972	778.469055	493.056213	-19.597615	812.307098	-159.951736	63.252415	894.248108	276.268280	23.808506	878.709229	27.761496	-152.266571	935.136780	182.943542	-146.942764	1201.130249	188.277893	142.824356	1090.975342	156.475754	43.815189	534.375671	350.194183	67.442863	443.429749	303.591797	77.217545	280.034637	362.893890	75.578644	63.984108	239.127960	22.400854	54.449001	187.038940	207.518341	49.505993	199.629364	-65.251106	543.037415	-74.449951	-69.771927	449.339447	-36.256260	-219.126740	290.843994	-47.639072	-366.375153	182.317780	54.836681	-396.045166	223.606140	100.237816	-316.349854	59.957081	97.541496
145	1.44000000	24.280184	1343.879150	363.029816	-9.485258	1355.500122	-4.162161	-3.884977	1431.635620	193.706284	99.545364	1309.313599	172.828445	-72.801956	1023.132629	470.716949	-102.004509	1055.794067	-119.145805	-12.503965	780.033630	492.765045	-16.825898	812.619354	-157.759872	72.916100	895.616394	277.252136	34.893242	880.165283	28.843084	-142.076920	936.911865	183.215042	-136.111374	1202.982178	189.296616	153.336349	1092.034912	157.176224	48.732159	534.891846	351.022766	71.095955	443.549500	304.272308	78.759499	280.061493	363.562622	75.566772	63.933601	239.281540	22.372482	54.608322	187.194199	207.469955	49.503353	199.797195	-47.326061	544.127686	-74.736412	-49.091106	450.600525	-37.243782	-198.232269	293.365845	-48.555401	-348.502502	188.118637	53.231445	-377.751709	229.217896	98.947220	-299.080414	64.966843	95.404953
146	1.45000000	35.955177	1345.076782	363.574066	0.880385	1356.894897	-3.560961	7.702629	1433.136719	194.383942	110.462387	1310.409668	173.178299	-60.017776	1024.244019	471.830505	-95.092300	1057.708496	-117.451569	3.038913	781.736847	492.449402	-14.057287	812.953979	-155.559303	82.316887	896.978821	278.301422	45.972801	881.674438	29.875271	-132.035049	938.682007	183.268478	-125.371933	1204.837646	190.227982	163.821213	1093.123413	157.892395	53.430149	535.533508	351.880951	74.452721	443.722260	304.944672	80.234955	280.189423	364.223358	75.526382	63.885780	239.476929	22.323805	54.775238	187.374695	207.395477	49.505821	200.042923	-29.521893	545.495056	-74.896385	-28.478504	452.233124	-38.026711	-176.919968	295.655487	-49.223473	-329.805115	192.928650	51.721817	-359.062042	233.375961	97.816597	-279.301239	69.796829	93.211464
147	1.46000000	47.438637	1346.307983	364.029602	11.106416	1358.167236	-3.080660	19.134138	1434.614258	194.926575	121.271988	1311.546875	173.447281	-47.348969	1025.416260	472.968964	-88.292793	1059.516113	-115.809433	18.639544	783.593903	492.117218	-11.280345	813.309509	-153.355408	91.481865	898.342834	279.426666	57.048767	883.229980	30.881464	-122.115265	940.430054	183.124664	-114.718979	1206.676392	191.048218	174.262299	1094.231934	158.619690	57.798435	536.233704	352.691132	77.484535	443.927399	305.558319	81.539680	280.389160	364.838440	75.470932	63.852352	239.688171	22.262669	54.947102	187.553925	207.306931	49.508663	200.343658	-11.751400	547.123779	-74.986526	-7.954347	454.195221	-38.642273	-155.311798	297.724335	-49.708939	-310.250153	196.614273	50.351627	-339.941010	236.047089	96.832497	-257.279510	74.196251	91.066696
